<svg xmlns="http://www.w3.org/2000/svg" xmlns:xl="http://www.w3.org/1999/xlink" width="1152" height="258" version="1.1" viewBox="-89 171 1152 258"><defs><marker id="FilledArrow_Marker" stroke-linejoin="miter" stroke-miterlimit="10" color="#000" markerHeight="8" markerUnits="strokeWidth" markerWidth="10" orient="auto" overflow="visible" viewBox="-1 -4 10 8"><g><path fill="currentColor" stroke="currentColor" stroke-width="1" d="M 8 0 L 0 -3 L 0 3 Z"/></g></marker><marker id="FilledArrow_Marker_2" stroke-linejoin="miter" stroke-miterlimit="10" color="#000" markerHeight="8" markerUnits="strokeWidth" markerWidth="10" orient="auto" overflow="visible" viewBox="-9 -4 10 8"><g><path fill="currentColor" stroke="currentColor" stroke-width="1" d="M -8 0 L 0 3 L 0 -3 Z"/></g></marker></defs><g id="Placement" fill="none" fill-opacity="1" stroke="none" stroke-dasharray="none" stroke-opacity="1"><title>Placement</title><rect width="1152" height="258" x="-89" y="171" fill="#fff"/><g id="Placement_Layer_1"><title>Layer 1</title><g id="Graphic_13"><rect width="34.5" height="177.5" x="-88" y="203.5" fill="#ccc"/><rect width="34.5" height="177.5" x="-88" y="203.5" stroke="#000" stroke-linecap="round" stroke-linejoin="round" stroke-width="1"/><text fill="#000" transform="translate(-78.75 366.89844) rotate(-90)"><tspan x="0" y="13" fill="#000" font-family="Helvetica" font-size="13" font-weight="bold">Temporal Delimiter OBU</tspan></text></g><g id="Graphic_14"><rect width="112.5" height="177.5" x="-53.5" y="203.5" fill="#fff"/><rect width="112.5" height="177.5" x="-53.5" y="203.5" stroke="#000" stroke-linecap="round" stroke-linejoin="round" stroke-width="1"/><text fill="#000" transform="translate(-48.5 273.25)"><tspan x="13.457" y="15" fill="#000" font-family="Helvetica" font-size="16" font-weight="bold">Sequence </tspan> <tspan x="4.125" y="34" fill="#000" font-family="Helvetica" font-size="16" font-weight="bold">Header OBU</tspan></text></g><g id="Graphic_15"><rect width="112.5" height="177.5" x="59" y="203.5" fill="#ffffc0"/><rect width="112.5" height="177.5" x="59" y="203.5" stroke="#000" stroke-linecap="round" stroke-linejoin="round" stroke-width="1"/><text fill="#000" transform="translate(64 263.75)"><tspan x="20.348" y="15" fill="#000" font-family="Helvetica" font-size="16" font-weight="bold">HDR10+ </tspan> <tspan x="16.574" y="34" fill="#000" font-family="Helvetica" font-size="16" font-weight="bold">Metadata </tspan> <tspan x="33.473" y="53" fill="#000" font-family="Helvetica" font-size="16" font-weight="bold">OBU</tspan></text></g><g id="Graphic_16"><rect width="112.5" height="177.5" x="171.5" y="203.5" fill="#c0ffc0"/><rect width="112.5" height="177.5" x="171.5" y="203.5" stroke="#000" stroke-linecap="round" stroke-linejoin="round" stroke-width="1"/><text fill="#000" transform="translate(176.5 282.75)"><tspan x="20.566" y="15" fill="#000" font-family="Helvetica" font-size="16" font-weight="bold">Frame 0</tspan></text></g><g id="Graphic_18"><rect width="112.5" height="177.5" x="318.5" y="203.5" fill="#c0c0ff"/><rect width="112.5" height="177.5" x="318.5" y="203.5" stroke="#000" stroke-linecap="round" stroke-linejoin="round" stroke-width="1"/><text fill="#000" transform="translate(323.5 282.75)"><tspan x="20.566" y="15" fill="#000" font-family="Helvetica" font-size="16" font-weight="bold">Frame 4</tspan></text></g><g id="Graphic_19"><rect width="112.5" height="177.5" x="431" y="203.5" fill="#c0c0ff"/><rect width="112.5" height="177.5" x="431" y="203.5" stroke="#000" stroke-linecap="round" stroke-linejoin="round" stroke-width="1"/><text fill="#000" transform="translate(436 282.75)"><tspan x="20.566" y="15" fill="#000" font-family="Helvetica" font-size="16" font-weight="bold">Frame 2</tspan></text></g><g id="Graphic_20"><rect width="112.5" height="177.5" x="543.5" y="203.5" fill="#ffffc0"/><rect width="112.5" height="177.5" x="543.5" y="203.5" stroke="#000" stroke-linecap="round" stroke-linejoin="round" stroke-width="1"/><text fill="#000" transform="translate(548.5 263.75)"><tspan x="20.348" y="15" fill="#000" font-family="Helvetica" font-size="16" font-weight="bold">HDR10+ </tspan> <tspan x="16.574" y="34" fill="#000" font-family="Helvetica" font-size="16" font-weight="bold">Metadata </tspan> <tspan x="33.473" y="53" fill="#000" font-family="Helvetica" font-size="16" font-weight="bold">OBU</tspan></text></g><g id="Graphic_21"><rect width="112.5" height="177.5" x="656" y="203.5" fill="#c0ffc0"/><rect width="112.5" height="177.5" x="656" y="203.5" stroke="#000" stroke-linecap="round" stroke-linejoin="round" stroke-width="1"/><text fill="#000" transform="translate(661 282.75)"><tspan x="20.566" y="15" fill="#000" font-family="Helvetica" font-size="16" font-weight="bold">Frame 1</tspan></text></g><g id="Graphic_23"><rect width="112.5" height="177.5" x="803" y="203.5" fill="#ffffc0"/><rect width="112.5" height="177.5" x="803" y="203.5" stroke="#000" stroke-linecap="round" stroke-linejoin="round" stroke-width="1"/><text fill="#000" transform="translate(808 263.75)"><tspan x="20.348" y="15" fill="#000" font-family="Helvetica" font-size="16" font-weight="bold">HDR10+ </tspan> <tspan x="16.574" y="34" fill="#000" font-family="Helvetica" font-size="16" font-weight="bold">Metadata </tspan> <tspan x="33.473" y="53" fill="#000" font-family="Helvetica" font-size="16" font-weight="bold">OBU</tspan></text></g><g id="Graphic_24"><rect width="112.5" height="177.5" x="915.5" y="203.5" fill="#ffc0c0"/><rect width="112.5" height="177.5" x="915.5" y="203.5" stroke="#000" stroke-linecap="round" stroke-linejoin="round" stroke-width="1"/><text fill="#000" transform="translate(920.5 282.75)"><tspan x="20.566" y="15" fill="#000" font-family="Helvetica" font-size="16" font-weight="bold">Frame 2</tspan></text></g><g id="Line_26"><line x1="-78.1" x2="274.1" y1="424.5" y2="424.5" stroke="#000" stroke-linecap="round" stroke-linejoin="round" stroke-width="1" marker-end="url(#FilledArrow_Marker)" marker-start="url(#FilledArrow_Marker_2)"/></g><g id="Line_27"><line x1="293.9" x2="758.6" y1="424.5" y2="424.5" stroke="#000" stroke-linecap="round" stroke-linejoin="round" stroke-width="1" marker-end="url(#FilledArrow_Marker)" marker-start="url(#FilledArrow_Marker_2)"/></g><g id="Line_28"><line x1="778.4" x2="1018.1" y1="424.5" y2="424.5" stroke="#000" stroke-linecap="round" stroke-linejoin="round" stroke-width="1" marker-end="url(#FilledArrow_Marker)" marker-start="url(#FilledArrow_Marker_2)"/></g><g id="Graphic_30"><text fill="#000" transform="translate(48.727 403.108)"><tspan x="0" y="13" fill="#000" font-family="Helvetica Neue" font-size="14">Temporal Unit 1</tspan></text></g><g id="Graphic_31"><text fill="#000" transform="translate(476.977 403.108)"><tspan x="0" y="13" fill="#000" font-family="Helvetica Neue" font-size="14">Temporal Unit 2</tspan></text></g><g id="Graphic_32"><text fill="#000" transform="translate(848.977 403.108)"><tspan x="0" y="13" fill="#000" font-family="Helvetica Neue" font-size="14">Temporal Unit 3</tspan></text></g><g id="Graphic_33"><rect width="34.5" height="177.5" x="284" y="203.5" fill="#ccc"/><rect width="34.5" height="177.5" x="284" y="203.5" stroke="#000" stroke-linecap="round" stroke-linejoin="round" stroke-width="1"/><text fill="#000" transform="translate(293.25 366.89844) rotate(-90)"><tspan x="0" y="13" fill="#000" font-family="Helvetica" font-size="13" font-weight="bold">Temporal Delimiter OBU</tspan></text></g><g id="Graphic_34"><rect width="34.5" height="177.5" x="768.5" y="203.5" fill="#ccc"/><rect width="34.5" height="177.5" x="768.5" y="203.5" stroke="#000" stroke-linecap="round" stroke-linejoin="round" stroke-width="1"/><text fill="#000" transform="translate(777.75 366.89844) rotate(-90)"><tspan x="0" y="13" fill="#000" font-family="Helvetica" font-size="13" font-weight="bold">Temporal Delimiter OBU</tspan></text></g><g id="Graphic_35"><rect width="34.5" height="177.5" x="1028" y="203.5" fill="#ccc"/><rect width="34.5" height="177.5" x="1028" y="203.5" stroke="#000" stroke-linecap="round" stroke-linejoin="round" stroke-width="1"/><text fill="#000" transform="translate(1037.25 366.89844) rotate(-90)"><tspan x="0" y="13" fill="#000" font-family="Helvetica" font-size="13" font-weight="bold">Temporal Delimiter OBU</tspan></text></g><g id="Graphic_36"><text fill="#000" transform="translate(89.574 347.5)"><tspan x="0" y="13" fill="#000" font-family="Helvetica Neue" font-size="14">Frame 0</tspan></text></g><g id="Graphic_37"><text fill="#000" transform="translate(574.074 347.5)"><tspan x="0" y="13" fill="#000" font-family="Helvetica Neue" font-size="14">Frame 1</tspan></text></g><g id="Graphic_38"><text fill="#000" transform="translate(833.574 347.5)"><tspan x="0" y="13" fill="#000" font-family="Helvetica Neue" font-size="14">Frame 2</tspan></text></g><g id="Line_40"><path stroke="#000" stroke-linecap="round" stroke-linejoin="round" stroke-width="1" marker-end="url(#FilledArrow_Marker)" d="M 971.75 203.5 L 971.75 171.76956 L 487.25 171.76956 L 487.25 193.6"/></g><g id="Graphic_42"><text fill="#000" transform="translate(177.658 347.5)"><tspan x="0" y="13" fill="#000" font-family="Helvetica Neue" font-size="14">show_frame = 1</tspan></text></g><g id="Graphic_43"><text fill="#000" transform="translate(662.158 347.5)"><tspan x="0" y="13" fill="#000" font-family="Helvetica Neue" font-size="14">show_frame = 1</tspan></text></g><g id="Graphic_44"><text fill="#000" transform="translate(325.816 347.5)"><tspan x="0" y="13" fill="#000" font-family="Helvetica Neue" font-size="14">show_frame = 0</tspan></text></g><g id="Graphic_45"><text fill="#000" transform="translate(438.316 347.5)"><tspan x="0" y="13" fill="#000" font-family="Helvetica Neue" font-size="14">show_frame = 0</tspan></text></g><g id="Graphic_46"><text fill="#000" transform="translate(922.816 339.304)"><tspan x="1.449" y="13" fill="#000" font-family="Helvetica Neue" font-size="14">show_existing_</tspan> <tspan x="19.397" y="29.392" fill="#000" font-family="Helvetica Neue" font-size="14">frame = 1</tspan></text></g></g></g></svg>